<svg width="55" height="55" viewBox="0 0 55 55" fill="none" xmlns="http://www.w3.org/2000/svg">
<g id="Frame 2390">
<path id="Vector" d="M53.9707 0.000571217H36.2274C35.7433 0.000571217 35.3496 0.392753 35.3452 0.879075L35.1419 22.342L30.1511 24.2301V13.7662C30.1511 13.2758 29.7566 12.8792 29.2689 12.8792H26.1957V10.0041C26.1957 8.5616 25.0286 7.38823 23.5938 7.38823H22.4715L22.471 3.09029C22.471 2.59994 22.0765 2.20331 21.5888 2.20331C21.1011 2.20331 20.7066 2.59996 20.7066 3.09029V7.38732H19.5967C18.1619 7.38732 16.9948 8.56069 16.9948 10.0032V12.8783H13.9216C13.4339 12.8783 13.0394 13.2749 13.0394 13.7653V20.6229L8.10049 15.6566C7.76942 15.3238 7.18364 15.3238 6.85262 15.6566L0.406714 22.1372C0.241187 22.3036 0.148438 22.5289 0.148438 22.7645V54.113C0.148438 54.6034 0.542965 55 1.03067 55H53.9721C54.4598 55 54.8543 54.6034 54.8543 54.113V0.886979C54.8534 0.397082 54.4585 0 53.9708 0L53.9707 0.000571217ZM18.7579 10.0041C18.7579 9.54008 19.1338 9.16218 19.5953 9.16218H23.593C24.0545 9.16218 24.4304 9.54008 24.4304 10.0041V12.8792H18.7579L18.7579 10.0041ZM1.91093 23.1336L7.47467 17.5399L13.0375 23.1336V53.228L1.91093 53.2275V23.1336ZM14.8021 22.7659V14.6537H28.3862V53.2278H14.8021V22.7659ZM30.1505 26.1274L41.8862 21.6867V53.2271L30.1505 53.2266V26.1274ZM53.088 53.227H43.6506V20.4039C43.6506 20.113 43.5086 19.8399 43.2702 19.6744C43.0319 19.5084 42.7284 19.4709 42.4577 19.5731L36.9126 21.6723L37.1007 1.77425H53.0888V53.2265L53.088 53.227ZM20.3098 18.4553L20.3195 20.2266L18.5551 20.2364L18.5453 18.4651L20.3098 18.4553ZM24.6327 18.4553L24.6424 20.2266L22.878 20.2364L22.8682 18.4651L24.6327 18.4553ZM20.3098 24.6205L20.3195 26.3927L18.5551 26.4025L18.5453 24.6303L20.3098 24.6205ZM24.6327 24.6205L24.6424 26.3927L22.878 26.4025L22.8682 24.6303L24.6327 24.6205ZM20.3098 30.7857L20.3195 32.5579L18.5551 32.5677L18.5453 30.7955L20.3098 30.7857ZM24.6327 30.7857L24.6424 32.5579L22.878 32.5677L22.8682 30.7955L24.6327 30.7857ZM20.3098 36.9517L20.3195 38.7239L18.5551 38.7337L18.5453 36.9615L20.3098 36.9517ZM24.6327 36.9517L24.6424 38.7239L22.878 38.7337L22.8682 36.9615L24.6327 36.9517ZM20.3098 43.1169L20.3195 44.8891L18.5551 44.8989L18.5453 43.1267L20.3098 43.1169ZM24.6327 43.1169L24.6424 44.8891L22.878 44.8989L22.8682 43.1267L24.6327 43.1169ZM6.18953 24.6203L6.19929 26.3925L4.43484 26.4023L4.42508 24.6301L6.18953 24.6203ZM10.5124 24.6203L10.5222 26.3925L8.75775 26.4023L8.74799 24.6301L10.5124 24.6203ZM6.18953 30.7855L6.19929 32.5577L4.43484 32.5675L4.42508 30.7953L6.18953 30.7855ZM10.5124 30.7855L10.5222 32.5577L8.75775 32.5675L8.74799 30.7953L10.5124 30.7855ZM6.18953 36.9515L6.19929 38.7237L4.43484 38.7335L4.42508 36.9613L6.18953 36.9515ZM10.5124 36.9515L10.5222 38.7237L8.75775 38.7335L8.74799 36.9613L10.5124 36.9515ZM6.18953 43.1167L6.19929 44.8889L4.43484 44.8987L4.42508 43.1265L6.18953 43.1167ZM10.5124 43.1167L10.5222 44.8889L8.75775 44.8987L8.74799 43.1265L10.5124 43.1167ZM6.18953 49.2819L6.19929 51.0541L4.43484 51.0639L4.42508 49.2917L6.18953 49.2819ZM10.5124 49.2819L10.5222 51.0541L8.75775 51.0639L8.74799 49.2917L10.5124 49.2819ZM46.2138 20.2371L46.204 18.4658L47.9685 18.456L47.9783 20.2273L46.2138 20.2371ZM46.2138 26.4027L46.204 24.6304L47.9685 24.6206L47.9783 26.3928L46.2138 26.4027ZM46.2138 32.5678L46.204 30.7956L47.9685 30.7858L47.9783 32.558L46.2138 32.5678ZM46.2138 38.7334L46.204 36.9612L47.9685 36.9514L47.9783 38.7236L46.2138 38.7334ZM46.2138 44.8986L46.204 43.1264L47.9685 43.1166L47.9783 44.8888L46.2138 44.8986ZM41.8909 7.90649L41.8811 6.13518L43.6456 6.12537L43.6553 7.89667L41.8909 7.90649ZM46.2138 7.90649L46.204 6.13518L47.9685 6.12537L47.9783 7.89667L46.2138 7.90649ZM41.8909 14.072L41.8811 12.3007L43.6456 12.2909L43.6553 14.0622L41.8909 14.072ZM46.2138 14.072L46.204 12.3007L47.9685 12.2909L47.9783 14.0622L46.2138 14.072ZM34.5144 30.7857L34.5242 32.5579L32.7598 32.5677L32.75 30.7955L34.5144 30.7857ZM38.8382 30.7857L38.848 32.5579L37.0836 32.5677L37.0738 30.7955L38.8382 30.7857ZM34.5144 36.9517L34.5242 38.7239L32.7598 38.7337L32.75 36.9615L34.5144 36.9517ZM38.8382 36.9517L38.848 38.7239L37.0836 38.7337L37.0738 36.9615L38.8382 36.9517ZM34.5144 43.1169L34.5242 44.8891L32.7598 44.8989L32.75 43.1267L34.5144 43.1169ZM38.8382 43.1169L38.848 44.8891L37.0836 44.8989L37.0738 43.1267L38.8382 43.1169ZM34.5144 49.2821L34.5242 51.0543L32.7598 51.0641L32.75 49.2919L34.5144 49.2821ZM38.8382 49.2821L38.848 51.0543L37.0836 51.0641L37.0738 49.2919L38.8382 49.2821ZM20.3099 49.2821L20.3197 51.0543L18.5552 51.0641L18.5454 49.2919L20.3099 49.2821ZM24.6328 49.2821L24.6426 51.0543L22.8781 51.0641L22.8683 49.2919L24.6328 49.2821ZM46.2138 51.0641L46.204 49.2919L47.9685 49.2821L47.9783 51.0543L46.2138 51.0641Z" fill="#413D3D"/>
</g>
</svg>
