<svg width="58" height="55" viewBox="0 0 58 55" fill="none" xmlns="http://www.w3.org/2000/svg">
<g id="Frame 2391">
<path id="Vector" d="M6.41406 38.5137H10.4191V44.4747H6.41406V38.5137Z" fill="#413D3D"/>
<path id="Vector_2" d="M6.41406 27.709H10.4191V33.67H6.41406V27.709Z" fill="#413D3D"/>
<path id="Vector_3" d="M20.9453 23.7036H26.4406V29.6646H20.9453V23.7036Z" fill="#413D3D"/>
<path id="Vector_4" d="M20.9453 12.9463H26.4406V18.9073H20.9453V12.9463Z" fill="#413D3D"/>
<path id="Vector_5" d="M20.9453 34.6016H27.9309V47.0356H20.9453V34.6016Z" fill="#413D3D"/>
<path id="Vector_6" d="M47.5781 38.5137H51.5832V44.4747H47.5781V38.5137Z" fill="#413D3D"/>
<path id="Vector_7" d="M47.5781 27.709H51.5832V33.67H47.5781V27.709Z" fill="#413D3D"/>
<path id="Vector_8" d="M31.5156 23.7036H37.0109V29.6646H31.5156V23.7036Z" fill="#413D3D"/>
<path id="Vector_9" d="M31.5156 12.9463H37.0109V18.9073H31.5156V12.9463Z" fill="#413D3D"/>
<path id="Vector_10" d="M30.0703 34.6016H37.0559V47.0356H30.0703V34.6016Z" fill="#413D3D"/>
<path id="Vector_11" d="M43.9948 18.0693V6.89243L28.9986 0L14.0024 6.89243V18.0693H0.03125V55H57.9649V18.0693H43.9948ZM14.0035 51.2744H2.82654V20.9104H13.9566V51.2744H14.0035ZM41.2006 51.2744H16.7977V8.70841L28.9986 3.11996L41.1995 8.70841L41.2006 51.2744ZM55.1718 51.2744H43.9948V20.9104H55.1249V51.2744H55.1718Z" fill="#413D3D"/>
</g>
</svg>
