<svg width="39" height="42" viewBox="0 0 39 42" fill="none" xmlns="http://www.w3.org/2000/svg">
<g id="Frame 2428">
<path id="Vector" d="M31.0053 13.0021C31.0053 9.81897 29.7408 6.76618 27.49 4.51534C25.2391 2.26451 22.1864 1 19.0032 1C15.82 1 12.7672 2.26451 10.5164 4.51534C8.26557 6.76618 7.00106 9.81897 7.00106 13.0021C7.00106 27.0046 1 31.0053 1 31.0053H37.0064C37.0064 31.0053 31.0053 27.0046 31.0053 13.0021Z" stroke="black" stroke-width="2" stroke-linecap="round" stroke-linejoin="round"/>
<path id="Vector_2" d="M22.4642 39.0068C22.1125 39.6131 21.6077 40.1163 21.0004 40.4662C20.393 40.816 19.7045 41.0001 19.0036 41.0001C18.3027 41.0001 17.6141 40.816 17.0068 40.4662C16.3994 40.1163 15.8947 39.6131 15.543 39.0068" stroke="black" stroke-width="2" stroke-linecap="round" stroke-linejoin="round"/>
</g>
</svg>
