<svg width="25" height="28" viewBox="0 0 25 28" fill="none" xmlns="http://www.w3.org/2000/svg">
<g id="Frame 28">
<path id="Vector" d="M18.6406 1H6.03785C4.70304 1.00427 3.42413 1.53641 2.48027 2.48027C1.53642 3.42413 1.00427 4.70304 1 6.03785V24.4398C1 26.7886 2.68468 27.7929 4.74194 26.6428L11.1081 23.0953C11.7885 22.7227 12.89 22.7227 13.5541 23.0953L19.9203 26.6428C21.9776 27.7929 23.6622 26.7886 23.6622 24.4398V6.03785C23.6633 5.37733 23.5343 4.72308 23.2825 4.11243C23.0307 3.50179 22.6611 2.94671 22.1948 2.47891C21.7285 2.0111 21.1746 1.63972 20.5648 1.38597C19.9549 1.13221 19.3011 1.00106 18.6406 1Z" stroke="black" stroke-width="1.5" stroke-linecap="round" stroke-linejoin="round"/>
<path id="Vector_2" d="M12.3392 14.8158C11.3768 14.8158 10.2136 14.9421 9 15.3335V9H15.6784V15.3335C14.4649 14.9421 13.3017 14.8158 12.3392 14.8158Z" stroke="black" stroke-opacity="0.82" stroke-width="16" stroke-linecap="round" stroke-linejoin="round"/>
</g>
</svg>
