<svg width="25" height="29" viewBox="0 0 25 29" fill="none" xmlns="http://www.w3.org/2000/svg">
<g id="Frame 28">
<path id="Vector" d="M18.6406 1H6.03785C4.70304 1.00427 3.42413 1.53641 2.48027 2.48027C1.53642 3.42413 1.00427 4.70304 1 6.03785V24.4398C1 26.7886 2.68468 27.7929 4.74194 26.6428L11.1081 23.0953C11.7885 22.7227 12.89 22.7227 13.5541 23.0953L19.9203 26.6428C21.9776 27.7929 23.6622 26.7886 23.6622 24.4398V6.03785C23.6633 5.37733 23.5343 4.72308 23.2825 4.11243C23.0307 3.50179 22.6611 2.94671 22.1948 2.47891C21.7285 2.0111 21.1746 1.63972 20.5648 1.38597C19.9549 1.13221 19.3011 1.00106 18.6406 1Z" stroke="black" stroke-width="1.5" stroke-linecap="round" stroke-linejoin="round"/>
<path id="Vector_2" d="M23.6784 6.03785V24.4398C23.6784 26.7886 21.9937 27.7768 19.9365 26.6428L13.5703 23.0953C12.89 22.7227 11.7885 22.7227 11.1081 23.0953L4.74194 26.6428C2.68468 27.7768 1 26.7886 1 24.4398V6.03785C1 3.26784 3.26784 1 6.03785 1H18.6406C21.4106 1 23.6784 3.26784 23.6784 6.03785Z" stroke="black" stroke-width="2" stroke-linecap="round" stroke-linejoin="round"/>
</g>
</svg>
