<svg width="24" height="24" viewBox="0 0 24 24" fill="none" xmlns="http://www.w3.org/2000/svg">
<g id="Frame 115">
<path id="Vector" d="M4.08217 21.9134L16.0795 21.6603C16.6794 21.6477 17.0708 21.2393 17.0582 20.6395L16.9949 17.6401C16.9823 17.0403 16.5739 16.6488 15.9741 16.6614L3.97674 16.9145C3.37687 16.9271 2.9854 17.3355 2.99805 17.9353L3.0613 20.9347C3.07395 21.5345 3.4823 21.926 4.08217 21.9134ZM12.7639 6.72692L17.7628 6.6215L17.6573 1.62261L12.6585 1.72804L12.7639 6.72692ZM17.9209 14.1198L22.9198 14.0144L22.8144 9.01552L17.8155 9.12094L17.9209 14.1198ZM6.92125 14.2518L15.4194 14.0726L15.3203 9.37361L6.82215 9.55283L6.92125 14.2518Z" stroke="#444B61" stroke-width="1.5" stroke-miterlimit="10" stroke-linecap="round" stroke-linejoin="round"/>
</g>
</svg>
