<svg width="22" height="22" viewBox="0 0 22 22" fill="none" xmlns="http://www.w3.org/2000/svg">
<g id="Iconsax/Linear/searchnormal1" clip-path="url(#clip0_73_398)">
<path id="Vector" d="M20.1654 20.1663L18.332 18.333M10.5404 19.2497C11.684 19.2497 12.8164 19.0244 13.8729 18.5868C14.9294 18.1492 15.8894 17.5077 16.6981 16.6991C17.5067 15.8904 18.1482 14.9304 18.5858 13.8739C19.0235 12.8173 19.2487 11.6849 19.2487 10.5413C19.2487 9.39775 19.0235 8.26535 18.5858 7.20881C18.1482 6.15226 17.5067 5.19226 16.6981 4.38362C15.8894 3.57498 14.9294 2.93352 13.8729 2.49589C12.8164 2.05826 11.684 1.83301 10.5404 1.83301C8.23077 1.83301 6.01577 2.75049 4.38264 4.38362C2.74951 6.01675 1.83203 8.23175 1.83203 10.5413C1.83203 12.8509 2.74951 15.0659 4.38264 16.6991C6.01577 18.3322 8.23077 19.2497 10.5404 19.2497Z" stroke="#040911" stroke-width="2.5" stroke-linecap="round" stroke-linejoin="round"/>
</g>
<defs>
<clipPath id="clip0_73_398">
<rect width="22" height="22" fill="white"/>
</clipPath>
</defs>
</svg>
