<svg width="26" height="25" viewBox="0 0 26 25" fill="none" xmlns="http://www.w3.org/2000/svg">
<g id="Frame 34">
<path id="Vector" d="M1.86328 23.2001H24.7339M3.13387 23.2001V4.14127C3.13387 3.46731 3.4016 2.82095 3.87816 2.34439C4.35473 1.86783 5.00108 1.6001 5.67505 1.6001H20.9221C21.5961 1.6001 22.2424 1.86783 22.719 2.34439C23.1956 2.82095 23.4633 3.46731 23.4633 4.14127V23.2001" stroke="#2C2C2C" stroke-width="1.8" stroke-linecap="round" stroke-linejoin="round"/>
<path id="Vector_2" d="M9.48828 23.2001V13.0354C9.48828 12.0245 9.88988 11.0549 10.6047 10.3401C11.3196 9.62523 12.2891 9.22363 13.3 9.22363C14.311 9.22363 15.2805 9.62523 15.9954 10.3401C16.7102 11.0549 17.1118 12.0245 17.1118 13.0354V23.2001" stroke="#2C2C2C" stroke-width="1.8" stroke-linecap="round" stroke-linejoin="round"/>
</g>
</svg>
