<svg width="35" height="35" viewBox="0 0 35 35" fill="none" xmlns="http://www.w3.org/2000/svg">
<g id="feedback-svgrepo-com.svg">
<path id="Vector" d="M31.4669 14.5252C31.0321 14.5252 30.6997 14.8845 30.6997 15.2951V29.1535C30.6997 30.026 30.0091 30.7189 29.1396 30.7189H5.76461C4.89508 30.7189 4.20457 30.026 4.20457 29.1535V6.54378C4.20457 5.67121 4.89508 4.9783 5.76461 4.9783H20.8024C21.2371 4.9783 21.5696 4.619 21.5696 4.20839C21.5696 3.7721 21.2116 3.43848 20.8024 3.43848H5.61116C3.9744 3.43848 2.64453 4.77299 2.64453 6.41546V29.3588C2.64453 31.0012 3.9744 32.3358 5.61116 32.3358H29.2931C30.9298 32.3358 32.2597 31.0012 32.2597 29.3588V15.2951C32.2597 14.8845 31.9017 14.5252 31.4669 14.5252Z" fill="#444B61"/>
<path id="Vector_2" d="M31.6189 6.28744L30.2123 4.87594C29.2405 3.90072 27.706 3.79806 26.8365 4.69629L12.0289 19.5555L16.9904 24.5343L31.798 9.67504C32.6931 8.80247 32.6163 7.26266 31.6189 6.28744ZM27.8851 11.3945L16.8881 22.4299L14.126 19.6839L25.1742 8.59717L27.8851 11.3945ZM30.6983 8.5715L29.0615 10.214L26.325 7.4423L27.9362 5.82549C28.2687 5.49186 28.8569 5.51753 29.2149 5.90248L30.6215 7.31398C31.0051 7.64761 31.0307 8.23787 30.6983 8.5715ZM12.0289 19.6069L10.4945 25.2015C10.4177 25.4582 10.4945 25.7148 10.6735 25.8945C10.8525 26.0741 11.1083 26.1511 11.364 26.0741L16.9392 24.5343L15.7884 23.3794L12.1824 24.3803L13.1798 20.7361L12.0289 19.6069Z" fill="#444B61"/>
</g>
</svg>
