<svg width="19" height="25" viewBox="0 0 19 25" fill="none" xmlns="http://www.w3.org/2000/svg">
<path d="M6.1372 7.19032L7.45231 4.49394C7.74015 3.90378 8.14141 3.3761 8.63318 2.94102C9.12495 2.50593 9.6976 2.17197 10.3184 1.9582C10.9393 1.74443 11.5961 1.65504 12.2515 1.69512C12.9069 1.73521 13.548 1.90399 14.1381 2.19183C14.7283 2.47966 15.256 2.88092 15.6911 3.37269C16.1261 3.86447 16.4601 4.43712 16.6739 5.05795C16.8876 5.67879 16.977 6.33565 16.937 6.99104C16.8969 7.64642 16.7281 8.28749 16.4402 8.87765L15.1251 11.574M12.4949 16.9668L11.1798 19.6632C10.892 20.2533 10.4907 20.781 9.99893 21.2161C9.50715 21.6512 8.9345 21.9851 8.31367 22.1989C7.05983 22.6306 5.68584 22.5466 4.49397 21.9653C3.3021 21.384 2.38996 20.353 1.95823 19.0992C1.5265 17.8453 1.61054 16.4713 2.19186 15.2795L3.50697 12.5831" stroke="black" stroke-width="2" stroke-linecap="round" stroke-linejoin="round"/>
<path d="M7.5625 15.6737L11.0695 8.48335" stroke="black" stroke-width="2" stroke-linecap="round" stroke-linejoin="round"/>
</svg>
