<svg width="22" height="23" viewBox="0 0 22 23" fill="none" xmlns="http://www.w3.org/2000/svg">
<g id="Iconsax/Linear/location">
<path id="Vector" d="M10.8002 12.7874C11.1689 12.7874 11.5341 12.7148 11.8748 12.5736C12.2154 12.4325 12.525 12.2257 12.7857 11.9649C13.0465 11.7042 13.2533 11.3946 13.3944 11.054C13.5356 10.7133 13.6082 10.3481 13.6082 9.97939C13.6082 9.61064 13.5356 9.24549 13.3944 8.90481C13.2533 8.56413 13.0465 8.25458 12.7857 7.99383C12.525 7.73308 12.2154 7.52625 11.8748 7.38513C11.5341 7.24402 11.1689 7.17139 10.8002 7.17139C10.0555 7.17139 9.34123 7.46723 8.81463 7.99383C8.28803 8.52043 7.99219 9.23466 7.99219 9.97939C7.99219 10.7241 8.28803 11.4383 8.81463 11.9649C9.34123 12.4915 10.0555 12.7874 10.8002 12.7874Z" stroke="#2C2C2C" stroke-width="1.35"/>
<path id="Vector_2" d="M3.25754 8.341C5.03054 0.547002 16.5775 0.556002 18.3415 8.35C19.3765 12.922 16.5325 16.792 14.0395 19.186C13.1684 20.0262 12.0053 20.4957 10.795 20.4957C9.58476 20.4957 8.42168 20.0262 7.55054 19.186C5.06654 16.792 2.22254 12.913 3.25754 8.341Z" stroke="#2C2C2C" stroke-width="1.35"/>
</g>
</svg>
