<svg width="35" height="35" viewBox="0 0 35 35" fill="none" xmlns="http://www.w3.org/2000/svg">
<g id="rectangle-on-rectangle-angled-svgrepo-com.svg" clip-path="url(#clip0_73_2802)">
<path id="Vector" d="M7.83432 28.9542L8.19103 28.8925V29.5961C8.19103 32.1387 9.47017 33.4223 12.0531 33.4223H30.6997C33.2706 33.4223 34.5619 32.1387 34.5619 29.5961V16.4757C34.5619 13.9454 33.2706 12.6617 30.6997 12.6617H27.8217L27.096 8.46515C26.6531 5.95958 25.1525 4.92275 22.6311 5.36712L4.26732 8.62564C1.72127 9.06995 0.675759 10.5511 1.13086 13.069L3.3694 25.8562C3.8245 28.3618 5.30054 29.3986 7.83432 28.9542ZM5.30054 25.3995L3.09886 12.8222C2.86516 11.5633 3.43094 10.7856 4.63632 10.5758L22.9508 7.32965C24.1439 7.1198 24.9435 7.66289 25.1649 8.92184L25.8292 12.6617H12.0531C9.47017 12.6617 8.19103 13.9331 8.19103 16.4757V26.8683L7.5268 26.9917C6.30914 27.2015 5.52189 26.6585 5.30054 25.3995ZM12.0778 31.4351C10.8478 31.4351 10.1712 30.7687 10.1712 29.485V16.5867C10.1712 15.3031 10.8478 14.6489 12.0778 14.6489H30.6752C31.8806 14.6489 32.5816 15.3031 32.5816 16.5867V29.485C32.5816 30.7687 31.8806 31.4351 30.6752 31.4351H12.0778Z" fill="#444B61"/>
<path id="Vector 1" d="M12.9609 24.0228C13.5257 22.6059 14.9941 20.1973 16.3495 21.8975C17.705 23.5977 20.0205 22.6059 21.0089 21.8975L24.3975 24.0228L28.2097 20.1973" stroke="#444B61" stroke-width="0.848629"/>
</g>
<defs>
<clipPath id="clip0_73_2802">
<rect width="33.8861" height="34.0043" fill="white" transform="translate(0.675781 0.644531)"/>
</clipPath>
</defs>
</svg>
