<svg width="37" height="37" viewBox="0 0 37 37" fill="none" xmlns="http://www.w3.org/2000/svg">
<g id="Frame 2429">
<path id="Vector" d="M18.3707 22.8523C20.9313 22.8523 23.0071 20.7765 23.0071 18.216C23.0071 15.6554 20.9313 13.5796 18.3707 13.5796C15.8101 13.5796 13.7344 15.6554 13.7344 18.216C13.7344 20.7765 15.8101 22.8523 18.3707 22.8523Z" stroke="black" stroke-width="2" stroke-linecap="round" stroke-linejoin="round"/>
<path id="Vector_2" d="M29.8075 22.8522C29.6017 23.3183 29.5404 23.8354 29.6313 24.3367C29.7222 24.8381 29.9612 25.3007 30.3175 25.6649L30.4102 25.7576C30.6976 26.0447 30.9255 26.3856 31.0811 26.7608C31.2366 27.1361 31.3167 27.5383 31.3167 27.9445C31.3167 28.3506 31.2366 28.7529 31.0811 29.1281C30.9255 29.5033 30.6976 29.8442 30.4102 30.1313C30.1231 30.4187 29.7822 30.6466 29.407 30.8022C29.0318 30.9577 28.6296 31.0378 28.2234 31.0378C27.8172 31.0378 27.415 30.9577 27.0397 30.8022C26.6645 30.6466 26.3236 30.4187 26.0365 30.1313L25.9438 30.0385C25.5796 29.6823 25.117 29.4433 24.6156 29.3524C24.1143 29.2615 23.5972 29.3228 23.1311 29.5285C22.674 29.7245 22.2842 30.0497 22.0096 30.4644C21.735 30.879 21.5876 31.3649 21.5856 31.8622V32.1249C21.5856 32.9447 21.26 33.7309 20.6803 34.3105C20.1007 34.8902 19.3145 35.2158 18.4947 35.2158C17.675 35.2158 16.8888 34.8902 16.3091 34.3105C15.7295 33.7309 15.4038 32.9447 15.4038 32.1249V31.9858C15.3919 31.4743 15.2263 30.9782 14.9286 30.562C14.6309 30.1458 14.215 29.8288 13.7347 29.6522C13.2686 29.4465 12.7515 29.3851 12.2502 29.476C11.7488 29.5669 11.2862 29.8059 10.922 30.1622L10.8293 30.2549C10.5422 30.5423 10.2013 30.7703 9.82609 30.9258C9.45086 31.0814 9.04865 31.1614 8.64246 31.1614C8.23626 31.1614 7.83405 31.0814 7.45882 30.9258C7.08359 30.7703 6.7427 30.5423 6.45564 30.2549C6.16826 29.9678 5.94027 29.627 5.78473 29.2517C5.62918 28.8765 5.54912 28.4743 5.54912 28.0681C5.54912 27.6619 5.62918 27.2597 5.78473 26.8845C5.94027 26.5092 6.16826 26.1683 6.45564 25.8813L6.54837 25.7885C6.90465 25.4243 7.14365 24.9617 7.23455 24.4604C7.32546 23.959 7.26409 23.442 7.05837 22.9758C6.86246 22.5187 6.53717 22.1289 6.12254 21.8543C5.70791 21.5797 5.22204 21.4323 4.72473 21.4304H4.462C3.64224 21.4304 2.85606 21.1047 2.2764 20.5251C1.69674 19.9454 1.37109 19.1592 1.37109 18.3395C1.37109 17.5197 1.69674 16.7335 2.2764 16.1539C2.85606 15.5742 3.64224 15.2485 4.462 15.2485H4.60109C5.11263 15.2366 5.60874 15.071 6.02492 14.7733C6.4411 14.4757 6.75811 14.0597 6.93473 13.5795C7.14045 13.1133 7.20182 12.5962 7.11092 12.0949C7.02002 11.5936 6.78101 11.131 6.42473 10.7667L6.332 10.674C6.04462 10.3869 5.81664 10.046 5.66109 9.67082C5.50554 9.29559 5.42548 8.89338 5.42548 8.48718C5.42548 8.08099 5.50554 7.67878 5.66109 7.30355C5.81664 6.92832 6.04462 6.58743 6.332 6.30037C6.61906 6.01298 6.95996 5.785 7.33519 5.62945C7.71042 5.47391 8.11263 5.39384 8.51882 5.39384C8.92501 5.39384 9.32722 5.47391 9.70245 5.62945C10.0777 5.785 10.4186 6.01298 10.7056 6.30037L10.7984 6.39309C11.1626 6.74938 11.6252 6.98838 12.1265 7.07928C12.6279 7.17018 13.145 7.10882 13.6111 6.90309H13.7347C14.1918 6.70719 14.5817 6.3819 14.8563 5.96727C15.1308 5.55264 15.2782 5.06676 15.2802 4.56946V4.30673C15.2802 3.48697 15.6058 2.70078 16.1855 2.12113C16.7651 1.54147 17.5513 1.21582 18.3711 1.21582C19.1909 1.21582 19.977 1.54147 20.5567 2.12113C21.1364 2.70078 21.462 3.48697 21.462 4.30673V4.44582C21.464 4.94313 21.6113 5.429 21.8859 5.84363C22.1605 6.25826 22.5504 6.58355 23.0075 6.77946C23.4736 6.98518 23.9907 7.04655 24.492 6.95565C24.9933 6.86474 25.456 6.62574 25.8202 6.26946L25.9129 6.17673C26.2 5.88935 26.5409 5.66137 26.9161 5.50582C27.2913 5.35027 27.6935 5.27021 28.0997 5.27021C28.5059 5.27021 28.9081 5.35027 29.2834 5.50582C29.6586 5.66137 29.9995 5.88935 30.2865 6.17673C30.5739 6.46379 30.8019 6.80468 30.9575 7.17991C31.113 7.55514 31.1931 7.95735 31.1931 8.36355C31.1931 8.76974 31.113 9.17195 30.9575 9.54718C30.8019 9.92241 30.5739 10.2633 30.2865 10.5504L30.1938 10.6431C29.8375 11.0073 29.5985 11.4699 29.5076 11.9713C29.4167 12.4726 29.4781 12.9897 29.6838 13.4558V13.5795C29.8797 14.0366 30.205 14.4264 30.6196 14.701C31.0343 14.9756 31.5201 15.1229 32.0175 15.1249H32.2802C33.0999 15.1249 33.8861 15.4506 34.4658 16.0302C35.0454 16.6099 35.3711 17.3961 35.3711 18.2158C35.3711 19.0356 35.0454 19.8218 34.4658 20.4014C33.8861 20.9811 33.0999 21.3067 32.2802 21.3067H32.1411C31.6438 21.3087 31.1579 21.4561 30.7433 21.7307C30.3287 22.0052 30.0034 22.3951 29.8075 22.8522Z" stroke="black" stroke-width="2" stroke-linecap="round" stroke-linejoin="round"/>
</g>
</svg>
