<svg width="57" height="41" viewBox="0 0 57 41" fill="none" xmlns="http://www.w3.org/2000/svg">
<path id="Vector (Stroke)" fill-rule="evenodd" clip-rule="evenodd" d="M21.1003 0.46967C21.3932 0.762563 21.3932 1.23744 21.1003 1.53033L2.81066 19.82H55.8089C56.2231 19.82 56.5589 20.1558 56.5589 20.57C56.5589 20.9842 56.2231 21.32 55.8089 21.32H2.81066L21.1003 39.6097C21.3932 39.9026 21.3932 40.3774 21.1003 40.6703C20.8074 40.9632 20.3326 40.9632 20.0397 40.6703L0.46967 21.1003C0.329018 20.9597 0.25 20.7689 0.25 20.57C0.25 20.3711 0.329018 20.1803 0.46967 20.0397L20.0397 0.46967C20.3326 0.176777 20.8074 0.176777 21.1003 0.46967Z" fill="black"/>
</svg>
