<svg width="75" height="45" viewBox="0 0 75 45" fill="none" xmlns="http://www.w3.org/2000/svg">
<g id="Frame 2392">
<path id="Vector" d="M15.396 28.7074C20.4 28.7074 24.4705 24.4672 24.4705 19.2556C24.4705 14.0433 20.3999 9.80371 15.396 9.80371C10.3922 9.80371 6.32031 14.0439 6.32031 19.2556C6.32031 24.4672 10.392 28.7074 15.396 28.7074ZM15.396 12.905C18.7584 12.905 21.4937 15.7534 21.4937 19.2549C21.4937 22.7565 18.7578 25.6049 15.396 25.6049C12.0332 25.6049 9.29776 22.7565 9.29776 19.2549C9.29776 15.753 12.0325 12.905 15.396 12.905Z" fill="#413D3D"/>
<path id="Vector_2" d="M59.3011 28.707C64.3051 28.707 68.3756 24.4669 68.3756 19.2552C68.3762 14.0429 64.3049 9.80273 59.3011 9.80273C54.2972 9.80273 50.2266 14.0429 50.2266 19.2546C50.2266 24.4668 54.2972 28.707 59.3011 28.707ZM59.3011 12.9046C62.6635 12.9046 65.3988 15.7531 65.3988 19.2546C65.3988 22.7561 62.6629 25.6046 59.3011 25.6046C55.9393 25.6046 53.2034 22.7561 53.2034 19.2546C53.2034 15.7526 55.9387 12.9046 59.3011 12.9046Z" fill="#413D3D"/>
<path id="Vector_3" d="M64.4408 31.1621H54.1666C53.4108 31.1621 52.6446 31.2545 51.8854 31.4376V30.1556C51.8854 24.5766 47.5257 20.0377 42.1678 20.0377L32.5322 20.0371C27.1743 20.0371 22.8146 24.576 22.8146 30.155V31.437C22.0542 31.2539 21.2886 31.1615 20.5317 31.1615L10.2592 31.1621C4.60191 31.1621 0 35.955 0 41.8477V45.0002H2.97745V41.8477C2.97745 37.6647 6.24352 34.2628 10.2592 34.2628H20.5317C24.5474 34.2628 27.8146 37.6652 27.8146 41.8477V45.0002H30.7921V41.8477C30.7921 38.063 28.8933 34.6164 25.7922 32.6862V30.1549C25.7922 26.2861 28.8161 23.1377 32.5322 23.1377H42.1678C45.8841 23.1377 48.9078 26.2861 48.9078 30.1549V32.6862C45.8067 34.6164 43.9079 38.063 43.9079 41.8477V45.0002H46.8854V41.8477C46.8854 37.6647 50.1515 34.2628 54.1666 34.2628H64.4408C68.4565 34.2628 71.7226 37.6652 71.7226 41.8477V45.0002H74.7V41.8477C74.7 35.955 70.0979 31.1621 64.4408 31.1621Z" fill="#413D3D"/>
<path id="Vector_4" d="M37.3472 17.924C42.0929 17.924 45.9522 13.9038 45.9522 8.96169C45.9522 4.02022 42.0923 0 37.3472 0C32.6015 0 28.7422 4.02022 28.7422 8.9623C28.7416 13.9038 32.6015 17.924 37.3472 17.924ZM37.3472 3.10187C40.4501 3.10187 42.9754 5.73037 42.9754 8.96169C42.9754 12.193 40.4501 14.8215 37.3472 14.8215C34.2437 14.8215 31.719 12.193 31.719 8.96169C31.719 5.73098 34.2431 3.10187 37.3472 3.10187Z" fill="#413D3D"/>
</g>
</svg>
