<svg width="32" height="36" viewBox="0 0 32 36" fill="none" xmlns="http://www.w3.org/2000/svg">
<g id="Frame 2678">
<path id="Vector" d="M31.9788 14.169C32.0489 13.8372 31.9416 13.4784 31.6673 13.2406L17.6029 1.04826C16.7041 0.26907 15.296 0.26907 14.3969 1.04826L0.332579 13.2406C0.0582367 13.4784 -0.0489805 13.8372 0.0210836 14.169C0.00848489 14.2663 0 14.3674 0 14.4758V33.2866C0 34.5271 1.00931 35.5364 2.24976 35.5364H29.7502C30.9907 35.5364 32 34.5271 32 33.2866V14.4758C32 14.3674 31.9914 14.2663 31.9788 14.169ZM15.66 2.50534C15.8315 2.35672 16.1682 2.35672 16.3397 2.50534L29.0374 13.5127L25.188 16.4788V11.8799C25.188 10.9938 24.4671 10.2729 23.581 10.2729H8.41887C7.53272 10.2729 6.8119 10.9938 6.8119 11.8799V16.4788L2.96249 13.5127L15.66 2.50534ZM23.2597 17.9648L16.4297 23.2277C16.3296 23.3049 16.1689 23.3509 15.9999 23.3509C15.831 23.3509 15.6703 23.3049 15.57 23.2277L8.74027 17.9648V12.2013H23.2597V17.9648ZM30.0716 33.2866C30.0716 33.4608 29.9244 33.608 29.7502 33.608H2.24964C2.07544 33.608 1.92824 33.4608 1.92824 33.2866V15.1503L14.393 24.7551C14.8316 25.0932 15.4023 25.2792 15.9998 25.2792C16.5973 25.2792 17.168 25.0932 17.6067 24.7551L30.0714 15.1503V33.2866H30.0716Z" fill="white"/>
</g>
</svg>
