<svg width="42" height="55" viewBox="0 0 42 55" fill="none" xmlns="http://www.w3.org/2000/svg">
<g id="Frame 2389">
<path id="Vector" d="M21.0001 31.6912C20.6895 31.6912 20.3789 31.575 20.1389 31.3494L10.143 21.6676C7.17109 18.7892 7.17109 14.1056 10.143 11.227C11.583 9.83219 13.4962 9.06641 15.5362 9.06641C17.5693 9.06641 19.4894 9.83219 20.9294 11.227L21.0071 11.3022L21.0777 11.2338C22.5177 9.83902 24.4308 9.07324 26.4639 9.07324C28.497 9.07324 30.4171 9.83902 31.8502 11.2338C33.2902 12.6286 34.0808 14.4816 34.0808 16.4575C34.0808 18.4267 33.2902 20.2864 31.8502 21.6812L21.8613 31.3492C21.6213 31.5748 21.3107 31.6911 21.0001 31.6911L21.0001 31.6912ZM15.5363 10.4344C13.8773 10.4344 12.3172 11.0634 11.1454 12.1984C8.72408 14.5436 8.72408 18.3587 11.1454 20.704L21.0001 30.2489L30.8549 20.704C32.0267 19.569 32.6761 18.0579 32.6761 16.4511C32.6761 14.8443 32.0266 13.3332 30.8549 12.1982C28.4335 9.85299 24.4945 9.85299 22.0732 12.1982L21.0002 13.2307L19.9272 12.1914C18.7554 11.0564 17.1953 10.4341 15.5363 10.4341V10.4344Z" fill="#413D3D"/>
<path id="Vector_2" d="M10.9637 16.9833C10.9496 16.7782 10.9496 16.5731 10.9637 16.3611C10.999 15.903 11.0978 15.4517 11.2673 15.0278L12.5874 15.5133C12.4674 15.8141 12.3968 16.1286 12.3756 16.4568C12.3615 16.6073 12.3615 16.7577 12.3756 16.9013L10.9637 16.9833Z" fill="#413D3D"/>
<path id="Vector_3" d="M13.3625 14.3653L12.3672 13.4012C13.2778 12.5192 14.492 12.0337 15.7768 12.0337V13.4012C14.8661 13.3944 14.0119 13.7431 13.3625 14.3653Z" fill="#413D3D"/>
<path id="Vector_4" d="M20.2969 31.0073H21.7088V45.6053H20.2969V31.0073Z" fill="#413D3D"/>
<path id="Vector_5" d="M39.2854 55.0001H2.71875L21.0021 44.8125L39.2854 55.0001ZM8.00599 53.6326H34.0046L21.0021 46.3918L8.00599 53.6326Z" fill="#413D3D"/>
<path id="Vector_6" d="M18.7442 39.7044C18.4477 39.7044 18.1371 39.6838 17.8053 39.636C16.2311 39.424 14.4734 38.7061 12.8427 37.6189C11.212 36.5318 9.89896 35.1917 9.12949 33.8447C8.28238 32.3541 8.19062 30.9935 8.88242 30.0226C9.57422 29.0517 10.9155 28.6483 12.6591 28.8876C14.2333 29.0996 15.991 29.8175 17.6217 30.9047C19.2524 31.9918 20.5655 33.3319 21.3349 34.6789C22.1821 36.1695 22.2738 37.5302 21.582 38.501C21.0243 39.2941 20.0289 39.7044 18.7442 39.7044ZM10.0543 30.8021C9.30601 31.8551 10.5979 34.4533 13.6475 36.4977C15.1017 37.4686 16.6476 38.1045 18.003 38.2891C19.1748 38.4463 20.0501 38.248 20.4172 37.7284C21.1655 36.6754 19.8737 34.0773 16.8241 32.0328C15.3698 31.0619 13.8239 30.426 12.4685 30.2415C11.2967 30.0842 10.4143 30.2893 10.0543 30.8021Z" fill="#413D3D"/>
<path id="Vector_7" d="M23.7651 44.6892C22.2404 44.6892 21.0684 44.2037 20.4119 43.2806C19.6001 42.1388 19.713 40.532 20.7225 38.7543C21.6473 37.1202 23.2497 35.4929 25.2263 34.1732C27.203 32.8536 29.3419 31.9784 31.2478 31.7186C33.3232 31.4383 34.9116 31.91 35.7234 33.045C36.5352 34.1868 36.4223 35.7936 35.4128 37.5713C34.488 39.2054 32.8856 40.8327 30.9089 42.1524C28.9324 43.472 26.7934 44.3472 24.8875 44.607C24.4992 44.6617 24.1251 44.6892 23.7651 44.6892ZM26.0312 35.3015C24.2311 36.5048 22.7839 37.968 21.9579 39.4176C21.2308 40.703 21.0896 41.8243 21.5767 42.5081C22.0638 43.1918 23.2004 43.4653 24.6969 43.2602C26.3912 43.0277 28.3113 42.2414 30.1113 41.0381C31.9114 39.8347 33.3585 38.3715 34.1846 36.922C34.9117 35.6366 35.0528 34.5153 34.5657 33.8315C34.0787 33.1477 32.9421 32.8743 31.4455 33.0794C29.7584 33.305 27.8383 34.0981 26.0312 35.3015Z" fill="#413D3D"/>
<path id="Vector_8" d="M20.2969 0H21.7088V4.15023H20.2969V0Z" fill="#413D3D"/>
<path id="Vector_9" d="M0.5 14.5903H4.78491V15.9579H0.5V14.5903Z" fill="#413D3D"/>
<path id="Vector_10" d="M37.2188 14.5903H41.5037V15.9579H37.2188V14.5903Z" fill="#413D3D"/>
<path id="Vector_11" d="M3.60938 6.97877L4.31531 5.79443L8.02593 7.86961L7.32 9.05395L3.60938 6.97877Z" fill="#413D3D"/>
<path id="Vector_12" d="M33.6875 23.7249L34.3934 22.5405L38.1041 24.6157L37.3981 25.8L33.6875 23.7249Z" fill="#413D3D"/>
<path id="Vector_13" d="M32.9453 8.14305L36.6559 6.06787L37.3619 7.2522L33.6512 9.32739L32.9453 8.14305Z" fill="#413D3D"/>
<path id="Vector_14" d="M3.89062 24.6089L7.60125 22.5337L8.30718 23.718L4.59655 25.7932L3.89062 24.6089Z" fill="#413D3D"/>
<path id="Vector_15" d="M11.1875 2.01333L12.4103 1.32959L14.5533 4.92359L13.3305 5.60733L11.1875 2.01333Z" fill="#413D3D"/>
<path id="Vector_16" d="M26.5703 4.92456L28.7128 1.33057L29.9356 2.01431L27.7931 5.6083L26.5703 4.92456Z" fill="#413D3D"/>
<path id="Vector_17" d="M20.75 42.4388L29.5332 36.4209L30.3485 37.5373L21.5653 43.5552L20.75 42.4388Z" fill="#413D3D"/>
</g>
</svg>
