<svg width="32" height="22" viewBox="0 0 32 22" fill="none" xmlns="http://www.w3.org/2000/svg">
<g id="Frame 2489">
<path id="Vector" d="M30.71 0.995117H1.295C0.865 0.995117 0.485 1.20512 0.255 1.52512C0.1 1.73512 0.005 2.00012 0.005 2.28512V4.45012C0.005 4.45512 0 4.45512 0 4.46012C0 4.47012 0.005 4.47012 0.005 4.47512V7.48012C0.005 7.49012 0 7.49512 0 7.50012C0 7.50512 0.005 7.51012 0.005 7.51512V19.7151C0.005 20.0001 0.1 20.2601 0.255 20.4751C0.485 20.7951 0.865 21.0051 1.295 21.0051H30.71C31.42 21.0051 32 20.4251 32 19.7151V2.28512C32 1.57512 31.42 0.995117 30.71 0.995117ZM31.51 19.7101C31.51 20.1501 31.15 20.5101 30.71 20.5101H1.295C0.855 20.5101 0.495 20.1501 0.495 19.7101V7.74512H31.51V19.7101ZM31.51 7.25012H0.495V4.71012H31.51V7.25012ZM31.51 4.21512H0.495V2.28512C0.495 1.84512 0.855 1.48512 1.295 1.48512H30.71C31.15 1.48512 31.51 1.84512 31.51 2.28512V4.21512Z" fill="white"/>
<path id="Vector_2" d="M14.6913 11.4154C14.6913 11.5504 14.5813 11.6604 14.4463 11.6604H2.52625C2.39125 11.6604 2.28125 11.5504 2.28125 11.4154C2.28125 11.2804 2.39125 11.1704 2.52625 11.1704H14.4463C14.5813 11.1754 14.6913 11.2804 14.6913 11.4154ZM11.1913 15.3354C11.1913 15.4704 11.0813 15.5804 10.9463 15.5804H2.52625C2.39125 15.5804 2.28125 15.4704 2.28125 15.3354C2.28125 15.2004 2.39125 15.0904 2.52625 15.0904H10.9463C11.0813 15.0954 11.1913 15.2004 11.1913 15.3354ZM26.7513 13.5754C26.5613 13.5754 26.3813 13.6004 26.2063 13.6454C26.1663 13.6554 26.1263 13.6654 26.0863 13.6754C25.7813 13.7704 25.5063 13.9304 25.2663 14.1304C25.1913 14.0654 25.1113 14.0054 25.0263 13.9554C24.9713 13.9154 24.9163 13.8854 24.8613 13.8554C24.7813 13.8104 24.7013 13.7704 24.6163 13.7354C24.5413 13.7054 24.4663 13.6804 24.3863 13.6604C24.3313 13.6454 24.2813 13.6304 24.2263 13.6254C24.1663 13.6054 24.1063 13.6004 24.0463 13.5954C23.9613 13.5804 23.8713 13.5754 23.7863 13.5754C23.7113 13.5754 23.6413 13.5804 23.5713 13.5854C23.5013 13.5954 23.4363 13.6054 23.3663 13.6154C23.3063 13.6254 23.2463 13.6404 23.1913 13.6554C23.1813 13.6554 23.1663 13.6604 23.1563 13.6654C23.0963 13.6804 23.0363 13.7004 22.9763 13.7254C22.9263 13.7404 22.8763 13.7654 22.8263 13.7904C22.5763 13.9004 22.3513 14.0604 22.1613 14.2504C22.1163 14.2954 22.0713 14.3454 22.0263 14.3954C22.0213 14.4004 22.0163 14.4054 22.0113 14.4154C21.9663 14.4704 21.9213 14.5304 21.8813 14.5904C21.8413 14.6504 21.8013 14.7154 21.7663 14.7804C21.7313 14.8404 21.7013 14.9004 21.6763 14.9654C21.6713 14.9754 21.6663 14.9854 21.6613 14.9954C21.6363 15.0604 21.6113 15.1254 21.5913 15.1904C21.5713 15.2454 21.5563 15.3054 21.5463 15.3604C21.5313 15.4154 21.5213 15.4704 21.5163 15.5254C21.5063 15.5704 21.5013 15.6204 21.4963 15.6654C21.4913 15.7354 21.4863 15.8054 21.4863 15.8754C21.4863 15.9454 21.4913 16.0154 21.4963 16.0854C21.5013 16.1254 21.5063 16.1704 21.5113 16.2104C21.5413 16.4104 21.5963 16.6054 21.6763 16.7854C21.7013 16.8504 21.7313 16.9104 21.7663 16.9704C21.8013 17.0354 21.8413 17.1004 21.8813 17.1604C21.9213 17.2254 21.9663 17.2854 22.0113 17.3404C22.1063 17.4554 22.2113 17.5604 22.3263 17.6554C22.3813 17.7004 22.4413 17.7454 22.5013 17.7854C22.5613 17.8254 22.6263 17.8654 22.6913 17.9004C22.7463 17.9304 22.8013 17.9554 22.8563 17.9804C22.9363 18.0204 23.0263 18.0504 23.1113 18.0804C23.1663 18.0954 23.2163 18.1104 23.2713 18.1204C23.3163 18.1354 23.3663 18.1404 23.4113 18.1504C23.4663 18.1604 23.5213 18.1654 23.5813 18.1704C23.6463 18.1754 23.7163 18.1804 23.7863 18.1804C23.8813 18.1804 23.9763 18.1754 24.0713 18.1604C24.1613 18.1504 24.2563 18.1304 24.3463 18.1054C24.3613 18.1054 24.3713 18.1004 24.3863 18.0954C24.4613 18.0754 24.5363 18.0504 24.6113 18.0204C24.6163 18.0204 24.6163 18.0204 24.6163 18.0204C24.7013 17.9854 24.7813 17.9454 24.8613 17.9004C24.9163 17.8704 24.9713 17.8404 25.0263 17.8004C25.1113 17.7504 25.1913 17.6904 25.2663 17.6254C25.5063 17.8254 25.7813 17.9854 26.0863 18.0804C26.1263 18.0904 26.1663 18.1004 26.2063 18.1104C26.3813 18.1554 26.5613 18.1804 26.7513 18.1804C28.0213 18.1804 29.0513 17.1454 29.0513 15.8754C29.0513 14.6104 28.0213 13.5754 26.7513 13.5754ZM24.4563 16.0854C24.4613 16.1354 24.4663 16.1854 24.4763 16.2304C24.4963 16.3804 24.5363 16.5254 24.5913 16.6654C24.6163 16.7354 24.6463 16.8054 24.6813 16.8704C24.6813 16.8804 24.6863 16.8854 24.6963 16.8954C24.7263 16.9604 24.7663 17.0304 24.8063 17.0904C24.8413 17.1554 24.8863 17.2154 24.9313 17.2754C24.6063 17.5404 24.2063 17.6954 23.7863 17.6954C23.7313 17.6954 23.6713 17.6904 23.6163 17.6854C22.7013 17.6004 21.9813 16.8254 21.9813 15.8804C21.9813 14.9404 22.7013 14.1654 23.6163 14.0804C23.6713 14.0754 23.7313 14.0704 23.7863 14.0704C24.2063 14.0704 24.6063 14.2254 24.9313 14.4904C24.8763 14.5604 24.8263 14.6304 24.7863 14.7054C24.7513 14.7554 24.7213 14.8104 24.6963 14.8654C24.6863 14.8754 24.6813 14.8804 24.6813 14.8904C24.6463 14.9554 24.6163 15.0254 24.5913 15.0954C24.5363 15.2354 24.4963 15.3804 24.4763 15.5304C24.4663 15.5804 24.4613 15.6254 24.4563 15.6754C24.4513 15.7454 24.4463 15.8104 24.4463 15.8804C24.4463 15.9504 24.4513 16.0154 24.4563 16.0854ZM26.7513 17.6904C26.6563 17.6904 26.5613 17.6854 26.4713 17.6654C25.6063 17.5354 24.9413 16.7854 24.9413 15.8804C24.9413 14.9804 25.6063 14.2254 26.4713 14.0954C26.5613 14.0754 26.6563 14.0704 26.7513 14.0704C27.7463 14.0704 28.5613 14.8854 28.5613 15.8804C28.5613 16.8804 27.7463 17.6904 26.7513 17.6904Z" fill="white"/>
</g>
</svg>
