<svg width="34" height="30" viewBox="0 0 34 30" fill="none" xmlns="http://www.w3.org/2000/svg">
<g id="Frame 2465">
<path id="Vector" d="M24.2727 28.091V25.182C24.2727 23.6389 23.6597 22.159 22.5686 21.0679C21.4775 19.9768 19.9976 19.3638 18.4545 19.3638H6.81818C5.2751 19.3638 3.79523 19.9768 2.70411 21.0679C1.61299 22.159 1 23.6389 1 25.182V28.091" stroke="white" stroke-width="2" stroke-linecap="round" stroke-linejoin="round"/>
<path id="Vector_2" d="M12.6385 13.5455C15.8518 13.5455 18.4567 10.9407 18.4567 7.72736C18.4567 4.51407 15.8518 1.90918 12.6385 1.90918C9.4252 1.90918 6.82031 4.51407 6.82031 7.72736C6.82031 10.9407 9.4252 13.5455 12.6385 13.5455Z" stroke="white" stroke-width="2" stroke-linecap="round" stroke-linejoin="round"/>
<path id="Vector_3" d="M32.9964 28.0909V25.1818C32.9955 23.8927 32.5664 22.6404 31.7766 21.6216C30.9868 20.6027 29.881 19.875 28.6328 19.5527" stroke="white" stroke-width="2" stroke-linecap="round" stroke-linejoin="round"/>
<path id="Vector_4" d="M22.8203 2.09814C24.0718 2.41858 25.1811 3.14644 25.9732 4.16696C26.7654 5.18748 27.1954 6.44262 27.1954 7.73451C27.1954 9.02639 26.7654 10.2815 25.9732 11.3021C25.1811 12.3226 24.0718 13.0504 22.8203 13.3709" stroke="white" stroke-width="2" stroke-linecap="round" stroke-linejoin="round"/>
</g>
</svg>
