<svg width="31" height="24" viewBox="0 0 31 24" fill="none" xmlns="http://www.w3.org/2000/svg">
<g id="Frame 94">
<path id="Vector" d="M11.1263 18.9583H19.8763C20.2895 18.9583 20.6361 18.8183 20.9161 18.5383C21.1961 18.2583 21.3356 17.9122 21.3346 17.5C21.3346 17.0868 21.1946 16.7402 20.9146 16.4602C20.6346 16.1802 20.2885 16.0407 19.8763 16.0417H11.1263C10.7131 16.0417 10.3665 16.1817 10.0865 16.4617C9.80651 16.7417 9.667 17.0878 9.66797 17.5C9.66797 17.9132 9.80797 18.2598 10.088 18.5398C10.368 18.8198 10.7141 18.9593 11.1263 18.9583ZM5.29297 14.5833H8.20964V11.6667H5.29297V14.5833ZM9.66797 14.5833H12.5846V11.6667H9.66797V14.5833ZM14.043 14.5833H16.9596V11.6667H14.043V14.5833ZM18.418 14.5833H21.3346V11.6667H18.418V14.5833ZM22.793 14.5833H25.7096V11.6667H22.793V14.5833ZM3.83464 23.3333C3.03255 23.3333 2.34568 23.0475 1.77401 22.4758C1.20235 21.9042 0.916999 21.2178 0.917971 20.4167V2.91667C0.917971 2.11458 1.2038 1.42771 1.77547 0.856044C2.34714 0.284377 3.03353 -0.000969746 3.83464 2.47595e-06H27.168C27.9701 2.47595e-06 28.6569 0.285835 29.2286 0.857502C29.8003 1.42917 30.0856 2.11556 30.0846 2.91667V20.4167C30.0846 21.2187 29.7988 21.9056 29.2271 22.4773C28.6555 23.049 27.9691 23.3343 27.168 23.3333H3.83464ZM3.83464 7.29167H27.168V2.91667H3.83464V7.29167ZM3.83464 20.4167H27.168V10.2083H3.83464V20.4167Z" fill="#5E5D5D"/>
</g>
</svg>
