<svg width="26" height="26" viewBox="0 0 26 26" fill="none" xmlns="http://www.w3.org/2000/svg">
<g id="Frame 68">
<path id="Vector" d="M18.2176 16.0314H17.0662L16.6581 15.6379C18.1358 13.9241 18.9479 11.736 18.9463 9.47313C18.9463 7.59952 18.3907 5.76799 17.3497 4.21014C16.3088 2.6523 14.8293 1.4381 13.0983 0.721103C11.3673 0.00410456 9.46262 -0.183495 7.62501 0.182028C5.78741 0.54755 4.09946 1.44978 2.77462 2.77462C1.44978 4.09946 0.54755 5.78741 0.182028 7.62501C-0.183495 9.46262 0.00410456 11.3673 0.721103 13.0983C1.4381 14.8293 2.6523 16.3088 4.21014 17.3497C5.76799 18.3907 7.59952 18.9463 9.47313 18.9463C11.8195 18.9463 13.9765 18.0864 15.6379 16.6581L16.0314 17.0662V18.2176L23.3185 25.49L25.49 23.3185L18.2176 16.0314ZM9.47313 16.0314C5.84419 16.0314 2.91481 13.1021 2.91481 9.47313C2.91481 5.84419 5.84419 2.91481 9.47313 2.91481C13.1021 2.91481 16.0314 5.84419 16.0314 9.47313C16.0314 13.1021 13.1021 16.0314 9.47313 16.0314Z" fill="#444444"/>
</g>
</svg>
